M48
; DRILL file {KiCad 9.0.6} date 2025-11-21T14:30:54-0700
; FORMAT={-:-/ absolute / inch / decimal}
; #@! TF.CreationDate,2025-11-21T14:30:54-07:00
; #@! TF.GenerationSoftware,Kicad,Pcbnew,9.0.6
; #@! TF.FileFunction,Plated,1,2,PTH
FMAT,2
INCH
; #@! TA.AperFunction,Plated,PTH,ViaDrill
T1C0.0118
; #@! TA.AperFunction,Plated,PTH,ComponentDrill
T2C0.0150
; #@! TA.AperFunction,Plated,PTH,ComponentDrill
T3C0.0315
; #@! TA.AperFunction,Plated,PTH,ComponentDrill
T4C0.0394
; #@! TA.AperFunction,Plated,PTH,ComponentDrill
T5C0.0420
; #@! TA.AperFunction,Plated,PTH,ComponentDrill
T6C0.0430
; #@! TA.AperFunction,Plated,PTH,ComponentDrill
T7C0.0472
; #@! TA.AperFunction,Plated,PTH,ComponentDrill
T8C0.0512
; #@! TA.AperFunction,Plated,PTH,ComponentDrill
T9C0.0730
; #@! TA.AperFunction,Plated,PTH,ComponentDrill
T10C0.1510
%
G90
G05
T1
X5.2329Y-1.725
X5.975Y-3.35
X6.325Y-3.125
X6.4Y-3.725
X6.425Y-3.075
X6.425Y-3.775
X6.45Y-3.8
X6.4875Y-3.8264
X6.55Y-3.05
X6.55Y-3.85
X6.6Y-3.54
X6.6Y-3.9
X6.725Y-2.975
X6.725Y-3.8
X6.7625Y-3.0375
X6.775Y-3.125
X6.7875Y-3.2125
X6.85Y-3.25
X7.15Y-3.25
X7.2Y-3.375
X7.25Y-3.25
X7.45Y-3.55
X7.52Y-3.1
T2
X4.9522Y-2.9894
X6.78Y-3.9942
X7.44Y-3.3194
X7.8194Y-3.44
T3
X6.7789Y-3.825
X6.9711Y-3.825
T4
X4.35Y-1.275
X4.3772Y-3.325
X4.3772Y-3.425
X4.3772Y-3.525
X4.45Y-1.275
X4.55Y-1.275
X4.65Y-1.275
X4.75Y-1.275
X4.7579Y-3.325
X4.7943Y-2.8002
X4.7943Y-2.9002
X4.8579Y-3.325
X4.9579Y-3.325
X5.0579Y-3.325
X6.25Y-4.3
X6.35Y-4.3
X6.45Y-4.3
X6.675Y-4.3
X6.775Y-4.3
X6.875Y-4.3
X7.125Y-4.3
X7.225Y-4.3
X7.325Y-4.3
X7.36Y-2.0
X7.36Y-2.1
X7.36Y-2.2
X7.36Y-2.3
X7.36Y-2.4
X7.36Y-2.5
X7.36Y-2.6
X7.36Y-2.7
X7.36Y-2.8
X7.36Y-2.9
X7.5Y-2.2
X7.5Y-2.3
X7.5Y-2.4
X7.5Y-2.5
X7.5Y-2.6
X7.5Y-2.7
X7.5Y-2.8
X7.5Y-2.9
X7.575Y-4.3
X7.675Y-4.3
X7.775Y-4.3
X9.075Y-4.28
X9.175Y-4.28
X9.275Y-4.28
X9.375Y-4.28
X9.3829Y-1.6
X9.3829Y-1.7
X9.3829Y-1.8
X9.5636Y-1.6
X9.5636Y-1.7
X9.5636Y-1.8
X9.7443Y-1.6
X9.7443Y-1.7
X9.7443Y-1.8
X9.925Y-1.6
X9.925Y-1.7
X9.925Y-1.8
T5
X8.1876Y-1.401
X8.1876Y-1.5191
X8.3057Y-1.401
X8.3057Y-1.5191
X8.4238Y-1.401
X8.4238Y-1.5191
X8.5419Y-1.401
X8.5419Y-1.5191
X8.6601Y-1.401
X8.6601Y-1.5191
X8.7782Y-1.401
X8.7782Y-1.5191
X8.8963Y-1.401
X8.8963Y-1.5191
X9.0144Y-1.401
X9.0144Y-1.5191
T6
X7.275Y-1.375
X7.375Y-1.375
X7.475Y-1.375
X7.575Y-1.375
X7.675Y-1.375
X8.05Y-4.3
X8.15Y-4.3
X8.25Y-4.3
X8.35Y-4.3
X8.45Y-4.3
T7
X4.825Y-2.275
X5.1203Y-2.275
T8
X4.2Y-4.2
X4.4Y-4.2
X4.6Y-4.2
X4.8Y-4.2
X5.0Y-4.2
X5.075Y-1.3
X5.2Y-4.2
X5.275Y-1.3
X5.4Y-4.2
X5.475Y-1.3
X5.6Y-4.2
X5.675Y-1.3
X5.8Y-4.2
X5.875Y-1.3
X6.0Y-4.2
X6.075Y-1.3
X6.275Y-1.3
X6.475Y-1.3
X6.675Y-1.3
X6.875Y-1.3
T9
X4.3174Y-1.949
X4.5339Y-1.949
T10
X3.85Y-4.275
X3.875Y-1.225
X9.85Y-4.3
X9.9Y-1.2
M30
