%TF.GenerationSoftware,KiCad,Pcbnew,9.0.6*%
%TF.CreationDate,2025-11-21T14:30:57-07:00*%
%TF.ProjectId,FloodingPICPCB,466c6f6f-6469-46e6-9750-49435043422e,rev?*%
%TF.SameCoordinates,Original*%
%TF.FileFunction,Soldermask,Top*%
%TF.FilePolarity,Negative*%
%FSLAX46Y46*%
G04 Gerber Fmt 4.6, Leading zero omitted, Abs format (unit mm)*
G04 Created by KiCad (PCBNEW 9.0.6) date 2025-11-21 14:30:57*
%MOMM*%
%LPD*%
G01*
G04 APERTURE LIST*
G04 Aperture macros list*
%AMRoundRect*
0 Rectangle with rounded corners*
0 $1 Rounding radius*
0 $2 $3 $4 $5 $6 $7 $8 $9 X,Y pos of 4 corners*
0 Add a 4 corners polygon primitive as box body*
4,1,4,$2,$3,$4,$5,$6,$7,$8,$9,$2,$3,0*
0 Add four circle primitives for the rounded corners*
1,1,$1+$1,$2,$3*
1,1,$1+$1,$4,$5*
1,1,$1+$1,$6,$7*
1,1,$1+$1,$8,$9*
0 Add four rect primitives between the rounded corners*
20,1,$1+$1,$2,$3,$4,$5,0*
20,1,$1+$1,$4,$5,$6,$7,0*
20,1,$1+$1,$6,$7,$8,$9,0*
20,1,$1+$1,$8,$9,$2,$3,0*%
G04 Aperture macros list end*
%ADD10R,1.700000X1.700000*%
%ADD11C,1.700000*%
%ADD12C,1.500000*%
%ADD13R,7.366000X7.366000*%
%ADD14R,1.950000X1.950000*%
%ADD15C,1.950000*%
%ADD16C,1.600200*%
%ADD17RoundRect,0.150000X0.150000X-0.587500X0.150000X0.587500X-0.150000X0.587500X-0.150000X-0.587500X0*%
%ADD18RoundRect,0.250000X-0.450000X0.325000X-0.450000X-0.325000X0.450000X-0.325000X0.450000X0.325000X0*%
%ADD19RoundRect,0.250000X-0.350000X-0.450000X0.350000X-0.450000X0.350000X0.450000X-0.350000X0.450000X0*%
%ADD20RoundRect,0.250000X-0.450000X0.350000X-0.450000X-0.350000X0.450000X-0.350000X0.450000X0.350000X0*%
%ADD21R,0.450000X1.800000*%
%ADD22RoundRect,0.250000X0.350000X0.450000X-0.350000X0.450000X-0.350000X-0.450000X0.350000X-0.450000X0*%
%ADD23C,2.362200*%
%ADD24RoundRect,0.250000X-0.475000X0.337500X-0.475000X-0.337500X0.475000X-0.337500X0.475000X0.337500X0*%
%ADD25RoundRect,0.250000X0.450000X-0.325000X0.450000X0.325000X-0.450000X0.325000X-0.450000X-0.325000X0*%
%ADD26RoundRect,0.250000X-0.337500X-0.475000X0.337500X-0.475000X0.337500X0.475000X-0.337500X0.475000X0*%
%ADD27C,1.574800*%
%ADD28RoundRect,0.250001X0.949999X0.949999X-0.949999X0.949999X-0.949999X-0.949999X0.949999X-0.949999X0*%
%ADD29C,2.400000*%
%ADD30RoundRect,0.250000X0.325000X0.450000X-0.325000X0.450000X-0.325000X-0.450000X0.325000X-0.450000X0*%
%ADD31C,1.905000*%
%ADD32RoundRect,0.250000X-0.325000X-0.450000X0.325000X-0.450000X0.325000X0.450000X-0.325000X0.450000X0*%
G04 APERTURE END LIST*
D10*
%TO.C,J2*%
X110490000Y-32385000D03*
D11*
X113030000Y-32385000D03*
X115570000Y-32385000D03*
X118110000Y-32385000D03*
X120650000Y-32385000D03*
%TD*%
D12*
%TO.C,Y1*%
X177065000Y-97155000D03*
X172185000Y-97155000D03*
%TD*%
D13*
%TO.C,REF\u002A\u002A*%
X250190000Y-109220000D03*
%TD*%
D14*
%TO.C,J3*%
X106680000Y-106680000D03*
D15*
X111760000Y-106680000D03*
X116840000Y-106680000D03*
X121920000Y-106680000D03*
X127000000Y-106680000D03*
X132080000Y-106680000D03*
X137160000Y-106680000D03*
X142240000Y-106680000D03*
X147320000Y-106680000D03*
X152400000Y-106680000D03*
%TD*%
D16*
%TO.C,J19*%
X194945000Y-34925000D03*
X192405000Y-34925000D03*
X189865000Y-34925000D03*
X187325000Y-34925000D03*
X184785000Y-34925000D03*
%TD*%
D10*
%TO.C,J12*%
X252095000Y-45720000D03*
D11*
X252095000Y-43180000D03*
X252095000Y-40640000D03*
%TD*%
D13*
%TO.C,GND*%
X98425000Y-31115000D03*
%TD*%
D17*
%TO.C,Q6*%
X203200000Y-55547500D03*
X205100000Y-55547500D03*
X204150000Y-53672500D03*
%TD*%
D10*
%TO.C,I\u00B2C1*%
X120850000Y-84455000D03*
D11*
X123390000Y-84455000D03*
X125930000Y-84455000D03*
X128470000Y-84455000D03*
%TD*%
D18*
%TO.C,D1*%
X196088000Y-82795000D03*
X196088000Y-84845000D03*
%TD*%
D10*
%TO.C,JP1*%
X121775000Y-73665000D03*
D11*
X121775000Y-71125000D03*
%TD*%
D19*
%TO.C,R4*%
X114155000Y-77089000D03*
X116155000Y-77089000D03*
%TD*%
D20*
%TO.C,R2*%
X188976000Y-82312000D03*
X188976000Y-84312000D03*
%TD*%
D10*
%TO.C,J9*%
X180975000Y-109220000D03*
D11*
X183515000Y-109220000D03*
X186055000Y-109220000D03*
%TD*%
D10*
%TO.C,J17*%
X190500000Y-73660000D03*
D11*
X190500000Y-71120000D03*
X190500000Y-68580000D03*
X190500000Y-66040000D03*
X190500000Y-63500000D03*
X190500000Y-60960000D03*
X190500000Y-58420000D03*
X190500000Y-55880000D03*
%TD*%
D21*
%TO.C,U1*%
X162380000Y-92450000D03*
X163030000Y-92450000D03*
X163680000Y-92450000D03*
X164330000Y-92450000D03*
X164980000Y-92450000D03*
X165630000Y-92450000D03*
X166280000Y-92450000D03*
X166930000Y-92450000D03*
X167580000Y-92450000D03*
X168230000Y-92450000D03*
X168880000Y-92450000D03*
X169530000Y-92450000D03*
X170180000Y-92450000D03*
X170830000Y-92450000D03*
X170830000Y-85350000D03*
X170180000Y-85350000D03*
X169530000Y-85350000D03*
X168880000Y-85350000D03*
X168230000Y-85350000D03*
X167580000Y-85350000D03*
X166930000Y-85350000D03*
X166280000Y-85350000D03*
X165630000Y-85350000D03*
X164980000Y-85350000D03*
X164330000Y-85350000D03*
X163680000Y-85350000D03*
X163030000Y-85350000D03*
X162380000Y-85350000D03*
%TD*%
D22*
%TO.C,R6*%
X140265000Y-66675000D03*
X138265000Y-66675000D03*
%TD*%
D10*
%TO.C,J1*%
X238125000Y-108712000D03*
D11*
X235585000Y-108712000D03*
X233045000Y-108712000D03*
X230505000Y-108712000D03*
%TD*%
D17*
%TO.C,Q8*%
X212410000Y-67915000D03*
X214310000Y-67915000D03*
X213360000Y-66040000D03*
%TD*%
D10*
%TO.C,J13*%
X247505000Y-45720000D03*
D11*
X247505000Y-43180000D03*
X247505000Y-40640000D03*
%TD*%
D17*
%TO.C,Q3*%
X230698000Y-89329500D03*
X232598000Y-89329500D03*
X231648000Y-87454500D03*
%TD*%
D23*
%TO.C,J11*%
X109660850Y-49504600D03*
X115160849Y-49504600D03*
%TD*%
D24*
%TO.C,C1*%
X112522000Y-39754900D03*
X112522000Y-41829900D03*
%TD*%
D17*
%TO.C,Q7*%
X233238000Y-76629500D03*
X235138000Y-76629500D03*
X234188000Y-74754500D03*
%TD*%
D10*
%TO.C,J14*%
X242915000Y-45720000D03*
D11*
X242915000Y-43180000D03*
X242915000Y-40640000D03*
%TD*%
D17*
%TO.C,Q5*%
X226060000Y-86360000D03*
X227960000Y-86360000D03*
X227010000Y-84485000D03*
%TD*%
D10*
%TO.C,J15*%
X238325000Y-45720000D03*
D11*
X238325000Y-43180000D03*
X238325000Y-40640000D03*
%TD*%
D20*
%TO.C,R3*%
X125785000Y-73930000D03*
X125785000Y-75930000D03*
%TD*%
D14*
%TO.C,J5*%
X128905000Y-33020000D03*
D15*
X133985000Y-33020000D03*
X139065000Y-33020000D03*
X144145000Y-33020000D03*
X149225000Y-33020000D03*
X154305000Y-33020000D03*
X159385000Y-33020000D03*
X164465000Y-33020000D03*
X169545000Y-33020000D03*
X174625000Y-33020000D03*
%TD*%
D10*
%TO.C,J4*%
X158750000Y-109220000D03*
D11*
X161290000Y-109220000D03*
X163830000Y-109220000D03*
%TD*%
D25*
%TO.C,D4*%
X114155000Y-73406000D03*
X114155000Y-71356000D03*
%TD*%
D10*
%TO.C,J6*%
X186944000Y-73660000D03*
D11*
X186944000Y-71120000D03*
X186944000Y-68580000D03*
X186944000Y-66040000D03*
X186944000Y-63500000D03*
X186944000Y-60960000D03*
X186944000Y-58420000D03*
X186944000Y-55880000D03*
X186944000Y-53340000D03*
X186944000Y-50800000D03*
%TD*%
D18*
%TO.C,D2*%
X193040000Y-82287000D03*
X193040000Y-84337000D03*
%TD*%
D26*
%TO.C,C5*%
X138260000Y-53975000D03*
X140335000Y-53975000D03*
%TD*%
D17*
%TO.C,Q4*%
X217490000Y-77137500D03*
X219390000Y-77137500D03*
X218440000Y-75262500D03*
%TD*%
D27*
%TO.C,J18*%
X207965403Y-35584301D03*
X210965402Y-35584301D03*
X213965401Y-35584301D03*
X216965401Y-35584301D03*
X219965400Y-35584301D03*
X222965399Y-35584301D03*
X225965398Y-35584301D03*
X228965397Y-35584301D03*
X207965403Y-38584300D03*
X210965402Y-38584300D03*
X213965401Y-38584300D03*
X216965401Y-38584300D03*
X219965400Y-38584300D03*
X222965399Y-38584300D03*
X225965398Y-38584300D03*
X228965397Y-38584300D03*
%TD*%
D17*
%TO.C,Q1*%
X238826000Y-81709500D03*
X240726000Y-81709500D03*
X239776000Y-79834500D03*
%TD*%
D28*
%TO.C,C7*%
X130055000Y-57785000D03*
D29*
X122555000Y-57785000D03*
%TD*%
D20*
%TO.C,R5*%
X115316000Y-37760400D03*
X115316000Y-39760400D03*
%TD*%
D26*
%TO.C,C4*%
X138260000Y-59055000D03*
X140335000Y-59055000D03*
%TD*%
D30*
%TO.C,D6*%
X140322500Y-61595000D03*
X138272500Y-61595000D03*
%TD*%
D25*
%TO.C,D3*%
X117076000Y-73152000D03*
X117076000Y-71102000D03*
%TD*%
D10*
%TO.C,JP2*%
X111180000Y-89535000D03*
D11*
X111180000Y-86995000D03*
X111180000Y-84455000D03*
%TD*%
D10*
%TO.C,J10*%
X192405000Y-109220000D03*
D11*
X194945000Y-109220000D03*
X197485000Y-109220000D03*
%TD*%
D13*
%TO.C,REF\u002A\u002A*%
X97790000Y-108585000D03*
%TD*%
D24*
%TO.C,C2*%
X177165000Y-101578500D03*
X177165000Y-103653500D03*
%TD*%
%TO.C,C3*%
X172212000Y-101451500D03*
X172212000Y-103526500D03*
%TD*%
D26*
%TO.C,C6*%
X138260000Y-48895000D03*
X140335000Y-48895000D03*
%TD*%
D31*
%TO.C,REF\u002A\u002A*%
X244496000Y-93112000D03*
X199496000Y-49362000D03*
%TD*%
D13*
%TO.C,REF\u002A\u002A*%
X251460000Y-30480000D03*
%TD*%
D32*
%TO.C,D5*%
X110481000Y-37236400D03*
X112531000Y-37236400D03*
%TD*%
D17*
%TO.C,Q2*%
X208920000Y-60960000D03*
X210820000Y-60960000D03*
X209870000Y-59085000D03*
%TD*%
D10*
%TO.C,J7*%
X169545000Y-109220000D03*
D11*
X172085000Y-109220000D03*
X174625000Y-109220000D03*
%TD*%
D22*
%TO.C,R1*%
X198612000Y-87376000D03*
%TD*%
D16*
%TO.C,J8*%
X204470000Y-109220000D03*
X207010000Y-109220000D03*
X209550000Y-109220000D03*
X212090000Y-109220000D03*
X214630000Y-109220000D03*
%TD*%
M02*
